<?xml version="1.0" encoding="UTF-8" standalone="no"?>
<svg width="65px" height="7px" viewBox="0 0 65 7" version="1.1" xmlns="http://www.w3.org/2000/svg" xmlns:xlink="http://www.w3.org/1999/xlink">
    <!-- Generator: Sketch 39.1 (31720) - http://www.bohemiancoding.com/sketch -->
    <title>Line</title>
    <desc>Created with Sketch.</desc>
    <defs></defs>
    <g id="Designs-r2" stroke="none" stroke-width="1" fill="none" fill-rule="evenodd" stroke-linecap="square">
        <g id="Reader:-People:-end-of-feed" transform="translate(0.000000, -54.000000)" stroke="#CC5C5C">
            <path d="M7.42875272e-09,57.5 C7.428753e-09,57.8746354 1.97157144,61.1683933 6.22057391,60.2826737 C10.4695764,59.3969541 9.38851929,55.9153892 12.4263773,54.9175417 C15.4642353,53.9196942 16.8056689,60.2826737 20.8644753,60.2826737 C24.9232816,60.2826737 25.5307518,54.9175417 29.5383549,54.9175417 C33.545958,54.9175417 33.2520724,60.2826735 37.3510571,60.2826735 C41.4500418,60.2826735 41.4558961,54.9175417 45.446703,54.9175417 C49.4375099,54.9175416 50.1165168,60.2826735 54.1495267,60.2826735 C58.1825366,60.2826735 57.6579543,55.376605 60.2649174,54.9175417 C62.8718806,54.4584784 64.5,57.5 64.5,57.5" id="Line"></path>
        </g>
    </g>
</svg>