<?xml version="1.0" encoding="UTF-8" standalone="no"?>
<svg width="20px" height="21px" viewBox="0 0 20 21" version="1.1" xmlns="http://www.w3.org/2000/svg" xmlns:xlink="http://www.w3.org/1999/xlink">
    <!-- Generator: Sketch 39.1 (31720) - http://www.bohemiancoding.com/sketch -->
    <title>Fill 1918 + Fill 1919</title>
    <desc>Created with Sketch.</desc>
    <defs></defs>
    <g id="Style-Guide" stroke="none" stroke-width="1" fill="none" fill-rule="evenodd">
        <g id="Icons" transform="translate(-53.000000, -68.000000)" fill="#62676C">
            <g id="Fill-1918-+-Fill-1919" transform="translate(53.000000, 68.000000)">
                <path d="M10,20.0908966 C9.80965517,20.0908966 9.65517241,19.9364138 9.65517241,19.746069 L9.65517241,0.615724138 C9.65517241,0.424689655 9.80965517,0.270896552 10,0.270896552 C10.1903448,0.270896552 10.3448276,0.424689655 10.3448276,0.615724138 L10.3448276,19.746069 C10.3448276,19.9364138 10.1903448,20.0908966 10,20.0908966" id="Fill-1918"></path>
                <path d="M19.4753793,10.3462069 L0.345034483,10.3462069 C0.154,10.3462069 0.000206896552,10.1917241 0.000206896552,10.0013793 C0.000206896552,9.81103448 0.154,9.65655172 0.345034483,9.65655172 L19.4753793,9.65655172 C19.6657241,9.65655172 19.8202069,9.81103448 19.8202069,10.0013793 C19.8202069,10.1917241 19.6657241,10.3462069 19.4753793,10.3462069" id="Fill-1919"></path>
            </g>
        </g>
    </g>
</svg>