<?xml version="1.0" encoding="UTF-8" standalone="no"?>
<svg width="17px" height="17px" viewBox="0 0 17 17" version="1.1" xmlns="http://www.w3.org/2000/svg" xmlns:xlink="http://www.w3.org/1999/xlink">
    <!-- Generator: Sketch 39.1 (31720) - http://www.bohemiancoding.com/sketch -->
    <title>Group 2</title>
    <desc>Created with Sketch.</desc>
    <defs></defs>
    <g id="Designs-r2" stroke="none" stroke-width="1" fill="none" fill-rule="evenodd">
        <g id="Account:-Logged-In" transform="translate(-24.000000, -452.000000)" fill="#B6DAEA">
            <g id="Group-2" transform="translate(24.000000, 452.000000)">
                <path d="M10.4833333,17 L9.91666667,17 C9.91666667,11.4393 5.5607,7.08333333 0,7.08333333 L0,6.51666667 C5.8786,6.51666667 10.4833333,11.1214 10.4833333,17" id="Fill-539"></path>
                <path d="M17,17 L16.4333333,17 C16.4333333,7.93843333 9.06156667,0.566666667 0,0.566666667 L0,0 C9.3738,0 17,7.6262 17,17" id="Fill-540"></path>
                <path d="M1.98333333,13.6 C1.20246667,13.6 0.566666667,14.2358 0.566666667,15.0166667 C0.566666667,15.7975333 1.20246667,16.4333333 1.98333333,16.4333333 C2.7642,16.4333333 3.4,15.7975333 3.4,15.0166667 C3.4,14.2358 2.7642,13.6 1.98333333,13.6 M1.98333333,17 C0.889666667,17 0,16.1103333 0,15.0166667 C0,13.923 0.889666667,13.0333333 1.98333333,13.0333333 C3.077,13.0333333 3.96666667,13.923 3.96666667,15.0166667 C3.96666667,16.1103333 3.077,17 1.98333333,17" id="Fill-541"></path>
            </g>
        </g>
    </g>
</svg>