<?xml version="1.0" encoding="UTF-8" standalone="no"?>
<svg width="22px" height="19px" viewBox="0 0 22 19" version="1.1" xmlns="http://www.w3.org/2000/svg" xmlns:xlink="http://www.w3.org/1999/xlink">
    <!-- Generator: Sketch 39.1 (31720) - http://www.bohemiancoding.com/sketch -->
    <title>Fill 995</title>
    <desc>Created with Sketch.</desc>
    <defs></defs>
    <g id="Designs-r2" stroke="none" stroke-width="1" fill="none" fill-rule="evenodd">
        <g id="Account:-Logged-In" transform="translate(-22.000000, -347.000000)" fill="#B6DAEA">
            <g id="Fill-995" transform="translate(22.000000, 347.000000)">
                <path d="M0.727272727,0.728727273 L0.727272727,15.6378182 C0.727272727,16.7083636 1.47490909,17.456 2.54545455,17.456 C3.63272727,17.456 4.36363636,16.7250909 4.36363636,15.6378182 L4.36363636,4.00145455 C4.36363636,3.80072727 4.52654545,3.63781818 4.72727273,3.63781818 L18.1818182,3.63781818 L18.1818182,2.18327273 L6.90909091,2.18327273 C6.70836364,2.18327273 6.54545455,2.02036364 6.54545455,1.81963636 L6.54545455,0.728727273 L0.727272727,0.728727273 Z M4.39636364,17.456 L18.5454545,17.456 C19.8770909,17.456 21.0909091,16.2581818 21.0909091,14.9418182 L21.0909091,4.36509091 L5.09090909,4.36509091 L5.09090909,15.6378182 C5.09090909,16.3781818 4.83563636,17.008 4.39636364,17.456 L4.39636364,17.456 Z M18.5454545,18.1832727 L2.54545455,18.1832727 C1.07054545,18.1832727 4.54747351e-13,17.1127273 4.54747351e-13,15.6378182 L4.54747351e-13,0.365090909 C4.54747351e-13,0.164363636 0.162909091,0.00145454545 0.363636364,0.00145454545 L6.90909091,0.00145454545 C7.10981818,0.00145454545 7.27272727,0.164363636 7.27272727,0.365090909 L7.27272727,1.456 L18.5454545,1.456 C18.7461818,1.456 18.9090909,1.61890909 18.9090909,1.81963636 L18.9090909,3.63781818 L21.4545455,3.63781818 C21.6552727,3.63781818 21.8181818,3.80072727 21.8181818,4.00145455 L21.8181818,14.9418182 C21.8181818,16.6385455 20.2581818,18.1832727 18.5454545,18.1832727 L18.5454545,18.1832727 Z"></path>
            </g>
        </g>
    </g>
</svg>