<?xml version="1.0" encoding="UTF-8" standalone="no"?>
<svg width="22px" height="22px" viewBox="0 0 22 22" version="1.1" xmlns="http://www.w3.org/2000/svg" xmlns:xlink="http://www.w3.org/1999/xlink">
    <!-- Generator: Sketch 39.1 (31720) - http://www.bohemiancoding.com/sketch -->
    <title>Group</title>
    <desc>Created with Sketch.</desc>
    <defs></defs>
    <g id="Designs-r2" stroke="none" stroke-width="1" fill="none" fill-rule="evenodd">
        <g id="Account:-Logged-In" transform="translate(-22.000000, -133.000000)" fill="#B6DAEA">
            <g id="Group" transform="translate(22.000000, 133.000000)">
                <path d="M12.7272727,3.63636364 L3.27272727,3.63636364 C3.072,3.63636364 2.90909091,3.47345455 2.90909091,3.27272727 C2.90909091,3.072 3.072,2.90909091 3.27272727,2.90909091 L12.7272727,2.90909091 C12.928,2.90909091 13.0909091,3.072 13.0909091,3.27272727 C13.0909091,3.47345455 12.928,3.63636364 12.7272727,3.63636364" id="Fill-6625"></path>
                <path d="M3.63636364,10.9090909 L8,10.9090909 L8,5.81818182 L3.63636364,5.81818182 L3.63636364,10.9090909 Z M8.36363636,11.6363636 L3.27272727,11.6363636 C3.072,11.6363636 2.90909091,11.4734545 2.90909091,11.2727273 L2.90909091,5.45454545 C2.90909091,5.25381818 3.072,5.09090909 3.27272727,5.09090909 L8.36363636,5.09090909 C8.56436364,5.09090909 8.72727273,5.25381818 8.72727273,5.45454545 L8.72727273,11.2727273 C8.72727273,11.4734545 8.56436364,11.6363636 8.36363636,11.6363636 L8.36363636,11.6363636 Z" id="Fill-6626"></path>
                <path d="M12.7272727,7.27272727 L10.5454545,7.27272727 C10.3447273,7.27272727 10.1818182,7.10981818 10.1818182,6.90909091 C10.1818182,6.70836364 10.3447273,6.54545455 10.5454545,6.54545455 L12.7272727,6.54545455 C12.928,6.54545455 13.0909091,6.70836364 13.0909091,6.90909091 C13.0909091,7.10981818 12.928,7.27272727 12.7272727,7.27272727" id="Fill-6627"></path>
                <path d="M12.7272727,8.72727273 L9.81818182,8.72727273 C9.61745455,8.72727273 9.45454545,8.56436364 9.45454545,8.36363636 C9.45454545,8.16290909 9.61745455,8 9.81818182,8 L12.7272727,8 C12.928,8 13.0909091,8.16290909 13.0909091,8.36363636 C13.0909091,8.56436364 12.928,8.72727273 12.7272727,8.72727273" id="Fill-6628"></path>
                <path d="M12.7272727,10.1818182 L9.81818182,10.1818182 C9.61745455,10.1818182 9.45454545,10.0189091 9.45454545,9.81818182 C9.45454545,9.61745455 9.61745455,9.45454545 9.81818182,9.45454545 L12.7272727,9.45454545 C12.928,9.45454545 13.0909091,9.61745455 13.0909091,9.81818182 C13.0909091,10.0189091 12.928,10.1818182 12.7272727,10.1818182" id="Fill-6629"></path>
                <path d="M12.7272727,11.6363636 L9.81818182,11.6363636 C9.61745455,11.6363636 9.45454545,11.4734545 9.45454545,11.2727273 C9.45454545,11.072 9.61745455,10.9090909 9.81818182,10.9090909 L12.7272727,10.9090909 C12.928,10.9090909 13.0909091,11.072 13.0909091,11.2727273 C13.0909091,11.4734545 12.928,11.6363636 12.7272727,11.6363636" id="Fill-6630"></path>
                <path d="M12.7272727,13.0909091 L3.27272727,13.0909091 C3.072,13.0909091 2.90909091,12.928 2.90909091,12.7272727 C2.90909091,12.5265455 3.072,12.3636364 3.27272727,12.3636364 L12.7272727,12.3636364 C12.928,12.3636364 13.0909091,12.5265455 13.0909091,12.7272727 C13.0909091,12.928 12.928,13.0909091 12.7272727,13.0909091" id="Fill-6631"></path>
                <path d="M12.7272727,14.5454545 L3.27272727,14.5454545 C3.072,14.5454545 2.90909091,14.3825455 2.90909091,14.1818182 C2.90909091,13.9810909 3.072,13.8181818 3.27272727,13.8181818 L12.7272727,13.8181818 C12.928,13.8181818 13.0909091,13.9810909 13.0909091,14.1818182 C13.0909091,14.3825455 12.928,14.5454545 12.7272727,14.5454545" id="Fill-6632"></path>
                <path d="M12.7272727,16 L3.27272727,16 C3.072,16 2.90909091,15.8370909 2.90909091,15.6363636 C2.90909091,15.4356364 3.072,15.2727273 3.27272727,15.2727273 L12.7272727,15.2727273 C12.928,15.2727273 13.0909091,15.4356364 13.0909091,15.6363636 C13.0909091,15.8370909 12.928,16 12.7272727,16" id="Fill-6633"></path>
                <path d="M12.7272727,17.4545455 L3.27272727,17.4545455 C3.072,17.4545455 2.90909091,17.2916364 2.90909091,17.0909091 C2.90909091,16.8901818 3.072,16.7272727 3.27272727,16.7272727 L12.7272727,16.7272727 C12.928,16.7272727 13.0909091,16.8901818 13.0909091,17.0909091 C13.0909091,17.2916364 12.928,17.4545455 12.7272727,17.4545455" id="Fill-6634"></path>
                <path d="M0.727272727,0.727272727 L0.727272727,18.5454545 C0.727272727,20.1629091 1.65454545,21.0909091 3.27272727,21.0909091 L16.4909091,21.0909091 C15.7476364,20.4901818 15.2727273,19.5723636 15.2727273,18.5454545 L15.2727273,0.727272727 L0.727272727,0.727272727 Z M18.5454545,21.8181818 L3.27272727,21.8181818 C1.25454545,21.8181818 4.54747351e-13,20.5643636 4.54747351e-13,18.5454545 L4.54747351e-13,0.363636364 C4.54747351e-13,0.162909091 0.162909091,-1.70530257e-13 0.363636364,-1.70530257e-13 L15.6363636,-1.70530257e-13 C15.8370909,-1.70530257e-13 16,0.162909091 16,0.363636364 L16,18.5454545 C16,19.9490909 17.1418182,21.0909091 18.5454545,21.0909091 C19.9490909,21.0909091 21.0909091,19.9490909 21.0909091,18.5454545 L21.0909091,3.63636364 L17.8181818,3.63636364 C17.6174545,3.63636364 17.4545455,3.47345455 17.4545455,3.27272727 C17.4545455,3.072 17.6174545,2.90909091 17.8181818,2.90909091 L21.4545455,2.90909091 C21.6552727,2.90909091 21.8181818,3.072 21.8181818,3.27272727 L21.8181818,18.5454545 C21.8181818,20.3498182 20.3498182,21.8181818 18.5454545,21.8181818 L18.5454545,21.8181818 Z" id="Fill-6635"></path>
                <path d="M18.1818182,5.09090909 L18.1818182,18.5454545 C18.1818182,18.7461818 18.3454545,18.9090909 18.5454545,18.9090909 C18.7454545,18.9090909 18.9090909,18.7461818 18.9090909,18.5454545 L18.9090909,5.09090909 L18.1818182,5.09090909 Z M18.5454545,19.6363636 C17.944,19.6363636 17.4545455,19.1469091 17.4545455,18.5454545 L17.4545455,2.18181818 L15.6363636,2.18181818 C15.4356364,2.18181818 15.2727273,2.01890909 15.2727273,1.81818182 C15.2727273,1.61745455 15.4356364,1.45454545 15.6363636,1.45454545 L17.8181818,1.45454545 C18.0189091,1.45454545 18.1818182,1.61745455 18.1818182,1.81818182 L18.1818182,4.36363636 L19.2727273,4.36363636 C19.4734545,4.36363636 19.6363636,4.52654545 19.6363636,4.72727273 L19.6363636,18.5454545 C19.6363636,19.1469091 19.1469091,19.6363636 18.5454545,19.6363636 L18.5454545,19.6363636 Z" id="Fill-6636"></path>
            </g>
        </g>
    </g>
</svg>