<?xml version="1.0" encoding="UTF-8" standalone="no"?>
<svg width="22px" height="22px" viewBox="0 0 22 22" version="1.1" xmlns="http://www.w3.org/2000/svg" xmlns:xlink="http://www.w3.org/1999/xlink">
    <!-- Generator: Sketch 39.1 (31720) - http://www.bohemiancoding.com/sketch -->
    <title>Fill 4250</title>
    <desc>Created with Sketch.</desc>
    <defs></defs>
    <g id="Designs-r2" stroke="none" stroke-width="1" fill="none" fill-rule="evenodd">
        <g id="Account:-Logged-In" transform="translate(-22.000000, -288.000000)" fill="#B6DAEA">
            <g id="Fill-4250" transform="translate(22.000000, 288.000000)">
                <path d="M11,16.1333333 C11.0762667,16.1333333 11.1525333,16.1575333 11.2170667,16.2052 L17.2641333,20.6602 L14.8346,13.1963333 C14.7854667,13.0445333 14.8397333,12.8788 14.9695333,12.7849333 L20.4974,8.8 L13.5666667,8.8 C13.4068,8.8 13.2652667,8.6966 13.2168667,8.54406667 L11,1.57593333 L8.78313333,8.54406667 C8.73473333,8.6966 8.5932,8.8 8.43333333,8.8 L1.46226667,8.8 L7.0598,13.0188667 C7.18593333,13.1142 7.23726667,13.2792 7.18666667,13.4288 L4.75273333,20.6477333 L10.7829333,16.2052 C10.8474667,16.1575333 10.9237333,16.1333333 11,16.1333333 M17.9666667,22 C17.8904,22 17.8141333,21.9758 17.7496,21.9281333 L11,16.9554 L4.2504,21.9281333 C4.12206667,22.0234667 3.94606667,22.0234667 3.817,21.9296 C3.68793333,21.835 3.6344,21.6678 3.68573333,21.516 L6.40713333,13.4449333 L0.145933333,8.72593333 C0.0198,8.63133333 -0.0315333333,8.46633333 0.0190666667,8.31673333 C0.0689333333,8.16713333 0.209,8.06666667 0.366666667,8.06666667 L8.16493333,8.06666667 L10.6502,0.255933333 C10.747,-0.0484 11.253,-0.0484 11.3498,0.255933333 L13.8350667,8.06666667 L21.6333333,8.06666667 C21.7924667,8.06666667 21.9332667,8.16933333 21.9824,8.3204 C22.0308,8.4722 21.9765333,8.63793333 21.8474667,8.73106667 L15.6148667,13.2234667 L18.3157333,21.5196667 C18.3641333,21.6714667 18.3106,21.8372 18.1808,21.9303333 C18.117,21.9765333 18.0414667,22 17.9666667,22"></path>
            </g>
        </g>
    </g>
</svg>