<?xml version="1.0" encoding="UTF-8" standalone="no"?>
<svg width="22px" height="22px" viewBox="0 0 22 22" version="1.1" xmlns="http://www.w3.org/2000/svg" xmlns:xlink="http://www.w3.org/1999/xlink">
    <!-- Generator: Sketch 39.1 (31720) - http://www.bohemiancoding.com/sketch -->
    <title>Group</title>
    <desc>Created with Sketch.</desc>
    <defs></defs>
    <g id="Designs-r2" stroke="none" stroke-width="1" fill="none" fill-rule="evenodd">
        <g id="Account:-Logged-In" transform="translate(-22.000000, -505.000000)" fill="#B6DAEA">
            <g id="Group" transform="translate(22.000000, 504.000000)">
                <path d="M4.67463333,20.0681333 L17.3253667,20.0681333 C16.8538333,19.7256667 16.5003667,19.2658667 16.5003667,18.6014667 L16.5003667,14.5681333 C16.5003667,12.2948 15.2551667,10.4196667 13.1710333,9.54993333 C13.0339,9.49273333 12.9451667,9.35926667 12.9451667,9.21113333 C12.9451667,8.13826667 12.0725,7.26633333 11.0003667,7.26633333 C9.9275,7.26633333 9.05483333,8.13826667 9.05483333,9.21113333 C9.05483333,9.35926667 8.9661,9.49273333 8.82896667,9.54993333 C6.74483333,10.4182 5.50036667,12.2940667 5.50036667,14.5681333 L5.50036667,18.6014667 C5.50036667,19.2658667 5.14616667,19.7256667 4.67463333,20.0681333 M18.8595,20.8014667 L3.1405,20.8014667 C2.96523333,20.8014667 2.8149,20.6775333 2.78116667,20.5059333 C2.74743333,20.3336 2.83983333,20.162 3.00116667,20.0952667 C4.00876667,19.6824 4.76703333,19.3142667 4.76703333,18.6014667 L4.76703333,14.5681333 C4.76703333,12.0667333 6.0951,9.98993333 8.3325,8.9662 C8.45643333,7.60366667 9.60556667,6.533 11.0003667,6.533 C12.3944333,6.533 13.5435667,7.6044 13.6675,8.9662 C15.9049,9.9914 17.2337,12.0682 17.2337,14.5681333 L17.2337,18.6014667 C17.2337,19.3142667 17.9912333,19.6824 18.9819667,20.0886667 C19.1440333,20.1554 19.2445,20.3299333 19.2107667,20.5022667 C19.1770333,20.6738667 19.0347667,20.8014667 18.8595,20.8014667" id="Fill-1559"></path>
                <path d="M11,22.9849667 C9.77753333,22.9849667 8.78386667,21.9905667 8.78386667,20.7681 L8.78386667,20.4344333 C8.78386667,20.2320333 8.94813333,20.0677667 9.15053333,20.0677667 C9.35293333,20.0677667 9.5172,20.2320333 9.5172,20.4344333 L9.5172,20.7681 C9.5172,21.5865 10.1823333,22.2516333 11,22.2516333 C11.8176667,22.2516333 12.4820667,21.5865 12.4820667,20.7681 L12.4820667,20.4344333 C12.4820667,20.2320333 12.6463333,20.0677667 12.8487333,20.0677667 C13.0518667,20.0677667 13.2154,20.2320333 13.2154,20.4344333 L13.2154,20.7681 C13.2154,21.9905667 12.2217333,22.9849667 11,22.9849667" id="Fill-1560"></path>
                <path d="M3.14064667,9.57802 C2.93824667,9.57802 2.77398,9.41375333 2.77398,9.21135333 C2.77398,6.20468667 5.21964667,3.75828667 8.22631333,3.75828667 C8.42871333,3.75828667 8.59298,3.92255333 8.59298,4.12495333 C8.59298,4.32808667 8.42871333,4.49162 8.22631333,4.49162 C5.62444667,4.49162 3.50731333,6.60875333 3.50731333,9.21135333 C3.50731333,9.41375333 3.34304667,9.57802 3.14064667,9.57802" id="Fill-1561"></path>
                <path d="M0.366666667,9.57802 C0.164266667,9.57802 0,9.41375333 0,9.21135333 C0,4.67495333 3.69013333,0.98482 8.2258,0.98482 C8.42893333,0.98482 8.59246667,1.14908667 8.59246667,1.35148667 C8.59246667,1.55462 8.42893333,1.71815333 8.2258,1.71815333 C4.09493333,1.71815333 0.733333333,5.07975333 0.733333333,9.21135333 C0.733333333,9.41375333 0.569066667,9.57802 0.366666667,9.57802" id="Fill-1562"></path>
                <path d="M18.8593533,9.57802 C18.6569533,9.57802 18.4926867,9.41375333 18.4926867,9.21135333 C18.4926867,6.60875333 16.3755533,4.49162 13.7736867,4.49162 C13.5712867,4.49162 13.40702,4.32808667 13.40702,4.12495333 C13.40702,3.92255333 13.5712867,3.75828667 13.7736867,3.75828667 C16.7803533,3.75828667 19.22602,6.20468667 19.22602,9.21135333 C19.22602,9.41375333 19.0617533,9.57802 18.8593533,9.57802" id="Fill-1563"></path>
                <path d="M21.6333333,9.57802 C21.4309333,9.57802 21.2666667,9.41375333 21.2666667,9.21135333 C21.2666667,5.07975333 17.9058,1.71815333 13.7742,1.71815333 C13.5710667,1.71815333 13.4075333,1.55462 13.4075333,1.35148667 C13.4075333,1.14908667 13.5710667,0.98482 13.7742,0.98482 C18.3098667,0.98482 22,4.67495333 22,9.21135333 C22,9.41375333 21.8357333,9.57802 21.6333333,9.57802" id="Fill-1564"></path>
            </g>
        </g>
    </g>
</svg>