<?xml version="1.0" encoding="UTF-8" standalone="no"?>
<svg width="22px" height="21px" viewBox="0 0 22 21" version="1.1" xmlns="http://www.w3.org/2000/svg" xmlns:xlink="http://www.w3.org/1999/xlink">
    <!-- Generator: Sketch 39.1 (31720) - http://www.bohemiancoding.com/sketch -->
    <title>Fill 6448 + Fill 6449 + Fill 6450</title>
    <desc>Created with Sketch.</desc>
    <defs></defs>
    <g id="Designs-r2" stroke="none" stroke-width="1" fill="none" fill-rule="evenodd">
        <g id="Account:-Logged-In" transform="translate(-22.000000, -237.000000)" fill="#B6DAEA">
            <g id="Fill-6448-+-Fill-6449-+-Fill-6450" transform="translate(22.000000, 237.000000)">
                <path d="M1.68749091,3.27272727 L10.5456727,5.80363636 L19.4031273,3.27272727 L10.5456727,0.741818182 L1.68749091,3.27272727 Z M10.5456727,6.54545455 C10.5122182,6.54545455 10.4780364,6.54109091 10.4453091,6.53163636 L0.263490909,3.62254545 C0.107854545,3.57745455 0.000218181818,3.43490909 0.000218181818,3.27272727 C0.000218181818,3.11054545 0.107854545,2.968 0.263490909,2.92290909 L10.4453091,0.0138181818 C10.5107636,-0.00436363636 10.5805818,-0.00436363636 10.6453091,0.0138181818 L20.8271273,2.92290909 C20.9827636,2.968 21.0911273,3.11054545 21.0911273,3.27272727 C21.0911273,3.43490909 20.9827636,3.57745455 20.8271273,3.62254545 L10.6453091,6.53163636 C10.6125818,6.54109091 10.5791273,6.54545455 10.5456727,6.54545455 L10.5456727,6.54545455 Z" id="Fill-6448"></path>
                <path d="M10.5454545,20.3636364 C10.5003636,20.3636364 10.4552727,20.3549091 10.4123636,20.3381818 L0.230545455,16.3381818 C0.0916363636,16.2836364 0,16.1498182 0,16 L0,3.27272727 C0,3.072 0.162909091,2.90909091 0.363636364,2.90909091 C0.564363636,2.90909091 0.727272727,3.072 0.727272727,3.27272727 L0.727272727,15.752 L10.5454545,19.6094545 L20.3636364,15.752 L20.3636364,3.27272727 C20.3636364,3.072 20.5265455,2.90909091 20.7272727,2.90909091 C20.928,2.90909091 21.0909091,3.072 21.0909091,3.27272727 L21.0909091,16 C21.0909091,16.1498182 20.9992727,16.2836364 20.8603636,16.3381818 L10.6785455,20.3381818 C10.6356364,20.3549091 10.5905455,20.3636364 10.5454545,20.3636364" id="Fill-6449"></path>
                <path d="M10.5454545,20.3636364 C10.3447273,20.3636364 10.1818182,20.2007273 10.1818182,20 L10.1818182,6.18181818 C10.1818182,5.98109091 10.3447273,5.81818182 10.5454545,5.81818182 C10.7461818,5.81818182 10.9090909,5.98109091 10.9090909,6.18181818 L10.9090909,20 C10.9090909,20.2007273 10.7461818,20.3636364 10.5454545,20.3636364" id="Fill-6450"></path>
            </g>
        </g>
    </g>
</svg>