<?xml version="1.0" encoding="UTF-8" standalone="no"?>
<svg width="17px" height="23px" viewBox="0 0 17 23" version="1.1" xmlns="http://www.w3.org/2000/svg" xmlns:xlink="http://www.w3.org/1999/xlink">
    <!-- Generator: Sketch 39.1 (31720) - http://www.bohemiancoding.com/sketch -->
    <title>Group</title>
    <desc>Created with Sketch.</desc>
    <defs></defs>
    <g id="Designs-r2" stroke="none" stroke-width="1" fill="none" fill-rule="evenodd">
        <g id="Account:-Logged-In" transform="translate(-24.000000, -183.000000)" fill="#B6DAEA">
            <g id="Group" transform="translate(24.000000, 183.000000)">
                <path d="M3.32608696,16.6311739 C2.04147826,16.6311739 1.10869565,17.651913 1.10869565,19.057 C1.10869565,20.4347391 2.04147826,21.4355217 3.32608696,21.4355217 C4.67943478,21.4355217 5.91304348,20.3785652 5.91304348,19.2181304 L5.91304348,16.6311739 L3.32608696,16.6311739 Z M3.32608696,22.1746522 C1.61278261,22.1746522 0.369565217,20.8641739 0.369565217,19.057 C0.369565217,17.2527826 1.64086957,15.8920435 3.32608696,15.8920435 L6.65217391,15.8920435 L6.65217391,19.2181304 C6.65217391,20.7932174 5.09778261,22.1746522 3.32608696,22.1746522 L3.32608696,22.1746522 Z" id="Fill-863"></path>
                <path d="M14.0434783,12.9355217 C12.6657391,12.9355217 11.4565217,14.0693478 11.4565217,15.3613478 C11.4565217,16.6503913 12.6413478,17.7398696 14.0434783,17.7398696 C15.3073913,17.7398696 16.2608696,16.7863913 16.2608696,15.5224783 L16.2608696,12.9355217 L14.0434783,12.9355217 Z M14.0434783,18.479 C12.2407391,18.479 10.7173913,17.051 10.7173913,15.3613478 C10.7173913,13.6458261 12.2407391,12.1963913 14.0434783,12.1963913 L17,12.1963913 L17,15.5224783 C17,17.2076957 15.7286957,18.479 14.0434783,18.479 L14.0434783,18.479 Z" id="Fill-864"></path>
                <polygon id="Fill-865" points="6.65217391 17.1458304 5.91304348 17.1458304 5.91304348 4.55326522 17 0.197569565 17 14.3497 16.2608696 14.3497 16.2608696 1.28187391 6.65217391 5.05735217"></polygon>
                <polygon id="Fill-866" points="6.41757391 8.84502609 6.1477913 8.15615652 16.4956174 4.09093913 16.7654 4.7798087"></polygon>
            </g>
        </g>
    </g>
</svg>