<?xml version="1.0" encoding="UTF-8" standalone="no"?>
<svg width="23px" height="23px" viewBox="0 0 23 23" version="1.1" xmlns="http://www.w3.org/2000/svg" xmlns:xlink="http://www.w3.org/1999/xlink">
    <!-- Generator: Sketch 39.1 (31720) - http://www.bohemiancoding.com/sketch -->
    <title>Fill 2390 + Fill 2391</title>
    <desc>Created with Sketch.</desc>
    <defs></defs>
    <g id="Designs-r2" stroke="none" stroke-width="1" fill="none" fill-rule="evenodd">
        <g id="Reader:-People:-end-of-feed" transform="translate(-21.000000, -603.000000)" fill="#B6DAEA">
            <g id="Fill-2390-+-Fill-2391" transform="translate(21.000000, 603.000000)">
                <path d="M11.5,0.766666667 C5.58133333,0.766666667 0.766666667,5.58133333 0.766666667,11.5 C0.766666667,14.2408333 1.79016667,16.8291 3.6547,18.8239667 C4.72343333,18.1715333 6.37713333,17.572 7.981,16.9908667 C8.3858,16.8444333 8.78983333,16.698 9.18313333,16.5508 L9.18313333,14.6387333 C8.7262,14.3742333 7.82766667,13.6244333 7.74026667,11.7951667 C7.37073333,11.6088667 7.1346,11.1412 7.1346,10.5332333 C7.1346,9.96896667 7.33776667,9.52583333 7.6636,9.31576667 C7.65976667,9.30196667 7.65516667,9.28816667 7.65133333,9.27436667 C7.42976667,8.48316667 7.01653333,7.01116667 7.60763333,6.2307 C7.78703333,5.99303333 8.14966667,5.70553333 8.83276667,5.7615 C9.35103333,4.72726667 10.9334333,4.35006667 12.2252667,4.35006667 C13.6451333,4.35006667 15.4176667,4.80623333 15.7381333,6.0904 C16.0202667,7.21663333 15.5917,8.55293333 15.3624667,9.27053333 C15.3571,9.28816667 15.3509667,9.30503333 15.3463667,9.3219 C15.6660667,9.53426667 15.8654,9.97433333 15.8654,10.5332333 C15.8654,11.1412 15.6292667,11.6088667 15.2597333,11.7951667 C15.1723333,13.6244333 14.2738,14.3742333 13.8161,14.6387333 L13.8161,16.5500333 C14.2531,16.7118 14.6870333,16.8689667 15.1117667,17.0230667 C16.8390667,17.6479 18.3509333,18.1945333 19.3560333,18.8109333 C21.2136667,16.8183667 22.2333333,14.2339333 22.2333333,11.5 C22.2333333,5.58133333 17.4186667,0.766666667 11.5,0.766666667 M3.5972,19.7002667 C3.49753333,19.7002667 3.3994,19.6619333 3.32503333,19.5868 C1.18066667,17.4194333 0,14.5475 0,11.5 C0,5.1589 5.1589,0 11.5,0 C17.8411,0 23,5.1589 23,11.5 C23,14.5413667 21.8231667,17.4094667 19.6857,19.5753 C19.5538333,19.7079333 19.3468333,19.7271 19.1927333,19.6197667 C18.285,18.9857333 16.6167333,18.3823667 14.8518667,17.7437333 C14.3428,17.5597333 13.8214667,17.3711333 13.2986,17.1756333 C13.1491,17.1196667 13.0494333,16.9763 13.0494333,16.8168333 L13.0494333,14.4003 C13.0494333,14.2347 13.1552333,14.0882667 13.3116333,14.0369 C13.3561,14.0208 14.4999667,13.5815 14.4999667,11.5 C14.4999667,11.2884 14.6717,11.1166667 14.8833,11.1166667 C14.9806667,11.1166667 15.0987333,10.8567667 15.0987333,10.5332333 C15.0987333,10.2104667 14.9806667,9.95056667 14.8833,9.95056667 C14.6717,9.95056667 14.4999667,9.77883333 14.4999667,9.56723333 C14.4999667,9.44993333 14.5413667,9.32113333 14.6318333,9.03746667 C14.8235,8.43793333 15.2229333,7.19056667 14.9952333,6.2767 C14.8265667,5.60433333 13.662,5.11673333 12.2252667,5.11673333 C10.7877667,5.11673333 9.6232,5.60433333 9.45453333,6.2767 C9.40623333,6.47526667 9.20843333,6.60023333 9.00756667,6.5596 C8.52916667,6.46453333 8.29456667,6.59333333 8.21866667,6.69376667 C7.85756667,7.17063333 8.24396667,8.54833333 8.38963333,9.06736667 C8.46783333,9.34643333 8.50003333,9.4645 8.50003333,9.56723333 C8.50003333,9.77883333 8.3283,9.95056667 8.1167,9.95056667 C8.01933333,9.95056667 7.90126667,10.2104667 7.90126667,10.5332333 C7.90126667,10.8567667 8.01933333,11.1166667 8.1167,11.1166667 C8.3283,11.1166667 8.50003333,11.2884 8.50003333,11.5 C8.50003333,13.5815 9.6439,14.0208 9.69296667,14.0384333 C9.844,14.0928667 9.9498,14.2385333 9.9498,14.4003 L9.9498,16.8168333 C9.9498,16.9763 9.85166667,17.1189 9.70216667,17.1748667 C9.22836667,17.3542667 8.73616667,17.5329 8.24166667,17.7123 C6.5389,18.3287 4.77786667,18.9673333 3.8157,19.6320333 C3.74976667,19.6780333 3.6731,19.7002667 3.5972,19.7002667" id="Fill-2390"></path>
                <path d="M11.5,23 C8.4065,23 5.50313333,21.7879 3.32503333,19.5868 L3.87013333,19.0478333 C5.90256667,21.1017333 8.61273333,22.2333333 11.5,22.2333333 C14.3926333,22.2333333 17.1058667,21.0979 19.1398333,19.0371 L19.6857,19.5753 C17.5068333,21.7840667 14.5996333,23 11.5,23" id="Fill-2391"></path>
            </g>
        </g>
    </g>
</svg>