<?xml version="1.0" encoding="UTF-8" standalone="no"?>
<svg width="25px" height="23px" viewBox="0 0 25 23" version="1.1" xmlns="http://www.w3.org/2000/svg" xmlns:xlink="http://www.w3.org/1999/xlink">
    <!-- Generator: Sketch 39.1 (31720) - http://www.bohemiancoding.com/sketch -->
    <title>Fill 2388 + Fill 2389</title>
    <desc>Created with Sketch.</desc>
    <defs></defs>
    <g id="Designs-r2" stroke="none" stroke-width="1" fill="none" fill-rule="evenodd">
        <g id="Account:-Logged-In" transform="translate(-20.000000, -81.000000)" fill="#B6DAEA">
            <g id="Fill-2388-+-Fill-2389" transform="translate(20.000000, 81.000000)">
                <path d="M0.83825,21.6666667 L18.90825,21.6666667 C18.89075,20.7058333 18.8090833,18.3333333 18.4365833,17.2108333 C18.1540833,16.3591667 16.0774167,15.6233333 13.87825,14.8433333 C13.2540833,14.6216667 12.60075,14.39 11.9365833,14.14 C11.7740833,14.0791667 11.6665833,13.9233333 11.6665833,13.75 L11.6665833,11.25 C11.6665833,11.1016667 11.74575,10.9641667 11.8749167,10.8891667 C11.92325,10.86 13.1340833,10.1041667 13.1340833,7.89916667 C13.1340833,7.66833333 13.32075,7.4825 13.55075,7.4825 C13.6015833,7.4825 13.75075,7.26416667 13.75075,6.84833333 C13.75075,6.43166667 13.6015833,6.21416667 13.55075,6.21416667 C13.32075,6.21416667 13.1340833,6.0275 13.1340833,5.7975 C13.1340833,5.65916667 13.18575,5.52333333 13.2890833,5.25416667 C13.50325,4.69833333 13.8999167,3.66333333 13.6715833,2.745 C13.50075,2.05916667 12.2349167,1.56083333 10.6615833,1.56083333 C9.08741667,1.56083333 7.82158333,2.05916667 7.65075,2.745 C7.59658333,2.96166667 7.38075,3.09666667 7.16408333,3.05333333 C7.02075,3.02416667 6.89325,3.01 6.77991667,3.01 C6.45241667,3.01 6.35908333,3.13416667 6.32825,3.175 C6.00908333,3.59916667 6.35158333,4.7825 6.49825,5.2875 C6.57908333,5.5675 6.61241667,5.68583333 6.61241667,5.7975 C6.61241667,6.0275 6.42575,6.21416667 6.19575,6.21416667 C6.16491667,6.21416667 6.12241667,6.27916667 6.10158333,6.31833333 C6.03491667,6.44666667 5.99491667,6.645 5.99491667,6.84833333 C5.99491667,7.2425 6.13408333,7.4825 6.19575,7.4825 C6.42575,7.4825 6.61241667,7.66833333 6.61241667,7.89916667 C6.61241667,10.0908333 8.04325,10.8466667 8.10325,10.8775 C8.24325,10.9491667 8.33325,11.0933333 8.33325,11.25 L8.33325,13.75 C8.33325,13.9233333 8.22658333,14.0783333 8.06491667,14.1391667 C7.38991667,14.3958333 6.67741667,14.6416667 5.97325,14.8841667 C3.91325,15.5941667 1.57825,16.3991667 1.30991667,17.2108333 C0.937416667,18.3341667 0.85575,20.7066667 0.83825,21.6666667 M19.3299167,22.5 L0.416583333,22.5 C0.186583333,22.5 -8.33333333e-05,22.3133333 -8.33333333e-05,22.0833333 C-8.33333333e-05,21.9375 0.00575,18.4958333 0.519083333,16.9483333 C0.917416667,15.7458333 3.13408333,14.9816667 5.70158333,14.0966667 C6.30491667,13.8883333 6.91491667,13.6783333 7.49991667,13.4616667 L7.49991667,11.4841667 C7.00575,11.15 5.89575,10.1858333 5.78741667,8.21333333 C5.40491667,8.00583333 5.16158333,7.50166667 5.16158333,6.84833333 C5.16158333,6.24416667 5.36908333,5.7675 5.70241667,5.535 C5.70075,5.53 5.69908333,5.525 5.69825,5.52 C5.48658333,4.79 5.09325,3.43166667 5.66241667,2.67416667 C5.85075,2.42416667 6.23241667,2.1225 6.97908333,2.18583333 C7.53825,1.11666667 9.25491667,0.7275 10.6615833,0.7275 C12.2140833,0.7275 14.1465833,1.20333333 14.48075,2.54416667 C14.7724167,3.71666667 14.3140833,4.91083333 14.0674167,5.5525 C14.38575,5.79083333 14.5840833,6.25833333 14.5840833,6.84833333 C14.5840833,7.18916667 14.5124167,7.51416667 14.3824167,7.7625 C14.2765833,7.96583333 14.13075,8.11833333 13.9599167,8.21166667 C13.8674167,10.1575 12.9274167,11.1225 12.4999167,11.4633333 L12.4999167,13.4608333 C13.06575,13.6708333 13.6224167,13.8683333 14.1565833,14.0583333 C16.7599167,14.9816667 18.8165833,15.7108333 19.2274167,16.9483333 C19.74075,18.4958333 19.7465833,21.9375 19.7465833,22.0833333 C19.7465833,22.3133333 19.5599167,22.5 19.3299167,22.5" id="Fill-2388"></path>
                <path d="M24.5833333,22.5 L22.4816667,22.5 C22.2516667,22.5 22.065,22.3133333 22.065,22.0833333 C22.065,21.8533333 22.2516667,21.6666667 22.4816667,21.6666667 L24.1616667,21.6666667 C24.1441667,20.7058333 24.0625,18.3333333 23.69,17.2108333 C23.3316667,16.1316667 20.0933333,14.9116667 17.2358333,13.8358333 L16.9366667,13.7233333 C16.7741667,13.6625 16.6666667,13.5066667 16.6666667,13.3333333 L16.6666667,11.6666667 C16.6666667,11.5 16.7658333,11.35 16.9183333,11.2841667 C16.9758333,11.2583333 18.3875,10.6 18.3875,8.42333333 C18.3875,8.19333333 18.5741667,8.00666667 18.8041667,8.00666667 C18.8308333,8.00666667 18.87,7.95416667 18.8975,7.9025 C18.9641667,7.77416667 19.0041667,7.57666667 19.0041667,7.37333333 C19.0041667,6.9575 18.8558333,6.73916667 18.8041667,6.73916667 C18.5741667,6.73916667 18.3875,6.5525 18.3875,6.3225 C18.3875,6.19166667 18.4375,6.05083333 18.5366667,5.76916667 C18.7525,5.15416667 19.1566667,4.0075 18.925,3.0775 C18.8391667,2.73 18.3125,2.09083333 17.55,1.79583333 C17.1316667,1.63416667 16.5033333,1.5275 15.8833333,1.94083333 C15.6908333,2.0675 15.4325,2.01666667 15.3058333,1.825 C15.1775,1.63333333 15.2291667,1.375 15.4208333,1.2475 C16.1358333,0.77 16.9983333,0.688333333 17.85,1.01916667 C18.7475,1.36583333 19.5566667,2.16416667 19.7341667,2.87583333 C20.025,4.04833333 19.5675,5.3475 19.3225,6.04583333 C19.3191667,6.055 19.3166667,6.06333333 19.3133333,6.07166667 C19.6366667,6.30833333 19.8375,6.77916667 19.8375,7.37333333 C19.8375,7.71416667 19.7658333,8.03916667 19.6358333,8.2875 C19.53,8.49083333 19.3841667,8.64416667 19.2125,8.73666667 C19.1058333,10.6933333 18.0075,11.5975 17.5,11.9125 L17.5291667,13.0558333 C21,14.3625 23.9975,15.4916667 24.4808333,16.9483333 C24.9941667,18.4958333 25,21.9375 25,22.0833333 C25,22.3133333 24.8133333,22.5 24.5833333,22.5" id="Fill-2389"></path>
            </g>
        </g>
    </g>
</svg>