<?xml version="1.0" encoding="UTF-8" standalone="no"?>
<svg width="20px" height="20px" viewBox="0 0 20 20" version="1.1" xmlns="http://www.w3.org/2000/svg" xmlns:xlink="http://www.w3.org/1999/xlink">
    <!-- Generator: Sketch 39.1 (31720) - http://www.bohemiancoding.com/sketch -->
    <title>Fill 3 + Fill 5</title>
    <desc>Created with Sketch.</desc>
    <defs></defs>
    <g id="Designs-r2" stroke="none" stroke-width="1" fill="none" fill-rule="evenodd">
        <g id="Account:-Logged-In" transform="translate(-23.000000, -398.000000)" fill="#B6DAEA">
            <g id="Fill-3-+-Fill-5" transform="translate(23.000000, 398.000000)">
                <path d="M0.666143791,7.11160471 L12.5255017,18.9684518 L19.1789459,12.3881224 L7.19035608,0.659087059 L0.666143791,0.659087059 L0.666143791,7.11160471 Z M12.5241694,19.7649694 L12.5228371,19.7649694 C12.4349061,19.7643106 12.3496397,19.7293929 12.2870222,19.6668047 L0.0965908497,7.47856941 C0.0346394771,7.41664 0,7.33362824 0,7.24732235 L0,0.329675294 C0,0.147181176 0.149216209,0.000263529412 0.333071895,0.000263529412 L7.3275817,0.000263529412 C7.41551268,0.000263529412 7.4994468,0.0338635294 7.56206431,0.0951341176 L19.8857244,12.1522635 C19.948342,12.2141929 19.9836476,12.2985224 19.9843137,12.3854871 C19.9849799,12.4737694 19.9496742,12.55744 19.8870567,12.6193694 L12.7593182,19.6681224 C12.6973668,19.7300518 12.6127665,19.7649694 12.5241694,19.7649694 L12.5241694,19.7649694 Z" id="Fill-3"></path>
                <path d="M4.53257558,3.15095529 C3.78982525,3.15095529 3.18629898,3.74850824 3.18629898,4.48243765 C3.18629898,5.21702588 3.78982525,5.81457882 4.53257558,5.81457882 C5.27532591,5.81457882 5.87951833,5.21702588 5.87951833,4.48243765 C5.87951833,3.74850824 5.27532591,3.15095529 4.53257558,3.15095529 M4.53257558,6.47340235 C3.42278003,6.47340235 2.52015519,5.58069647 2.52015519,4.48243765 C2.52015519,3.38483765 3.42278003,2.49213176 4.53257558,2.49213176 C5.64303728,2.49213176 6.54566212,3.38483765 6.54566212,4.48243765 C6.54566212,5.58069647 5.64303728,6.47340235 4.53257558,6.47340235" id="Fill-5"></path>
            </g>
        </g>
    </g>
</svg>