<?xml version="1.0" encoding="UTF-8" standalone="no"?>
<svg width="22px" height="22px" viewBox="0 0 22 22" version="1.1" xmlns="http://www.w3.org/2000/svg" xmlns:xlink="http://www.w3.org/1999/xlink">
    <!-- Generator: Sketch 39.1 (31720) - http://www.bohemiancoding.com/sketch -->
    <title>Search +</title>
    <desc>Created with Sketch.</desc>
    <defs></defs>
    <g id="Designs-r2" stroke="none" stroke-width="1" fill="none" fill-rule="evenodd">
        <g id="Account:-Logged-In" transform="translate(-22.000000, -555.000000)" fill="#B6DAEA">
            <g id="Search-+" transform="translate(22.000000, 555.000000)">
                <path d="M21.6333333,21.9996333 C21.5394667,21.9996333 21.4456,21.9637 21.3737333,21.8925667 L12.6265333,13.1439 C12.4828,13.0009 12.4828,12.7691667 12.6265333,12.6254333 C12.7695333,12.4824333 13.0012667,12.4824333 13.145,12.6254333 L21.8922,21.3733667 C22.0359333,21.5171 22.0359333,21.7488333 21.8922,21.8925667 C21.8210667,21.9637 21.7272,21.9996333 21.6333333,21.9996333" id="Fill-4146"></path>
                <path d="M11,8.0663 L4.4,8.0663 C4.1976,8.0663 4.03333333,7.90203333 4.03333333,7.69963333 C4.03333333,7.49723333 4.1976,7.33296667 4.4,7.33296667 L11,7.33296667 C11.2024,7.33296667 11.3666667,7.49723333 11.3666667,7.69963333 C11.3666667,7.90203333 11.2024,8.0663 11,8.0663" id="Fill-4147"></path>
                <path d="M7.7,11.3663 C7.4976,11.3663 7.33333333,11.2020333 7.33333333,10.9996333 L7.33333333,4.39963333 C7.33333333,4.19723333 7.4976,4.03296667 7.7,4.03296667 C7.9024,4.03296667 8.06666667,4.19723333 8.06666667,4.39963333 L8.06666667,10.9996333 C8.06666667,11.2020333 7.9024,11.3663 7.7,11.3663" id="Fill-4148"></path>
                <path d="M7.7,0.732966667 C3.8588,0.732966667 0.733333333,3.85843333 0.733333333,7.69963333 C0.733333333,11.5408333 3.8588,14.6663 7.7,14.6663 C11.5412,14.6663 14.6666667,11.5408333 14.6666667,7.69963333 C14.6666667,3.85843333 11.5412,0.732966667 7.7,0.732966667 M7.7,15.3996333 C3.454,15.3996333 0,11.9456333 0,7.69963333 C0,3.45363333 3.454,-0.000366666667 7.7,-0.000366666667 C11.946,-0.000366666667 15.4,3.45363333 15.4,7.69963333 C15.4,11.9456333 11.946,15.3996333 7.7,15.3996333" id="Fill-4149"></path>
            </g>
        </g>
    </g>
</svg>