<?xml version="1.0" encoding="UTF-8" standalone="no"?>
<svg width="30px" height="30px" viewBox="0 0 30 30" version="1.1" xmlns="http://www.w3.org/2000/svg" xmlns:xlink="http://www.w3.org/1999/xlink">
    <!-- Generator: Sketch 39.1 (31720) - http://www.bohemiancoding.com/sketch -->
    <title>Fill 4153 + Fill 4154</title>
    <desc>Created with Sketch.</desc>
    <defs></defs>
    <g id="Designs-r2" stroke="none" stroke-width="1" fill="none" fill-rule="evenodd">
        <g id="Reader:-Search-feeds" transform="translate(-84.000000, -72.000000)" fill="#231F1F">
            <g id="Fill-4153-+-Fill-4154" transform="translate(84.000000, 72.000000)">
                <path d="M29.5,29.9995 C29.372,29.9995 29.244,29.9505 29.146,29.8535 L17.215,17.9215 C17.02,17.7265 17.02,17.4105 17.215,17.2145 C17.41,17.0195 17.727,17.0195 17.922,17.2145 L29.853,29.1455 C30.049,29.3415 30.049,29.6575 29.853,29.8535 C29.756,29.9505 29.628,29.9995 29.5,29.9995" id="Fill-4153"></path>
                <path d="M10.5,0.9995 C5.262,0.9995 1,5.2615 1,10.4995 C1,15.7375 5.262,19.9995 10.5,19.9995 C15.738,19.9995 20,15.7375 20,10.4995 C20,5.2615 15.738,0.9995 10.5,0.9995 M10.5,20.9995 C4.71,20.9995 0,16.2895 0,10.4995 C0,4.7095 4.71,-0.0005 10.5,-0.0005 C16.29,-0.0005 21,4.7095 21,10.4995 C21,16.2895 16.29,20.9995 10.5,20.9995" id="Fill-4154"></path>
            </g>
        </g>
    </g>
</svg>