<?xml version="1.0" encoding="UTF-8" standalone="no"?>
<svg width="20px" height="20px" viewBox="0 0 20 20" version="1.1" xmlns="http://www.w3.org/2000/svg" xmlns:xlink="http://www.w3.org/1999/xlink">
    <!-- Generator: Sketch 39.1 (31720) - http://www.bohemiancoding.com/sketch -->
    <title>Group 9</title>
    <desc>Created with Sketch.</desc>
    <defs></defs>
    <g id="Designs-r2" stroke="none" stroke-width="1" fill="none" fill-rule="evenodd">
        <g id="Reader:-People:-end-of-feed" transform="translate(-280.000000, -16.000000)" fill="#B6DAEA">
            <g id="Group-9" transform="translate(280.000000, 16.000000)">
                <path d="M8.4658731,18.5750725 L11.6925398,18.5750725 L11.6925398,16.6249275 C11.6925398,16.3953623 11.8270325,16.1878261 12.0368876,16.0950725 C13.1754383,15.5907246 13.993989,15.1037681 14.5354383,14.6063768 C14.7255832,14.4324638 15.006163,14.4034783 15.2264528,14.5368116 L16.8287716,15.5014493 L18.4368876,12.7153623 L16.7464528,11.7391304 C16.5273224,11.613913 16.4148586,11.36 16.4693514,11.1130435 C16.6873224,10.1286957 16.686163,9.17217391 16.4693514,8.19130435 C16.4148586,7.94434783 16.526163,7.68927536 16.7452934,7.56405797 L18.4368876,6.58782609 L16.8287716,3.80289855 L15.224134,4.76753623 C15.0050035,4.89971014 14.7232644,4.87188406 14.5331195,4.69681159 C13.9974673,4.20637681 13.1568876,3.70434783 12.0368876,3.20811594 C11.8270325,3.11536232 11.6925398,2.90782609 11.6925398,2.67826087 L11.6925398,1.15942029 L8.4658731,1.15942029 L8.4658731,2.67826087 C8.4658731,2.94956522 8.27688759,3.18492754 8.01253976,3.24405797 C6.71862672,3.53275362 6.22471368,3.98724638 5.47572817,4.67478261 C5.29022092,4.84289855 4.98993107,4.8973913 4.77196005,4.77681159 L3.02703252,3.78898551 L1.39340933,6.59014493 L3.07340933,7.56405797 C3.29138034,7.69043478 3.40268469,7.94434783 3.34819194,8.19014493 C3.1290615,9.18144928 3.12790208,10.137971 3.34239484,11.1130435 C3.39688759,11.36 3.28558324,11.613913 3.06645281,11.7402899 L1.37138034,12.7165217 L2.98877165,15.5176812 L4.77427889,14.5263768 C4.99224991,14.4057971 5.26355426,14.4382609 5.44674266,14.6063768 C6.22239484,15.3182609 6.71862672,15.7727536 8.01138034,16.0591304 C8.27688759,16.1182609 8.4658731,16.3536232 8.4658731,16.6249275 L8.4658731,18.5750725 Z M12.2722499,19.7344928 L7.88616295,19.7344928 C7.56616295,19.7344928 7.30645281,19.4747826 7.30645281,19.1547826 L7.30645281,17.0771014 C6.19688759,16.7605797 5.580076,16.2875362 4.97253976,15.7426087 L3.05253976,16.8092754 C2.77775715,16.96 2.42877165,16.8649275 2.26877165,16.5913043 L0.0774672994,12.7942029 C0.000945560309,12.6597101 -0.0199240049,12.502029 0.0194962849,12.3536232 C0.0600759951,12.2052174 0.157467299,12.0776812 0.290800633,12.0011594 L2.12964121,10.9426087 C1.9858731,10.0811594 1.98703252,9.22898551 2.13427889,8.35942029 L0.309351357,7.30086957 C0.176018024,7.22434783 0.07978614,7.09681159 0.0392064299,6.9484058 C-0.000213859981,6.79884058 0.0218151255,6.64115942 0.0994962849,6.50782609 L2.31398904,2.70956522 C2.47514846,2.43478261 2.82413397,2.33855072 3.100076,2.4973913 L4.97833686,3.56057971 C5.59282962,3.00869565 6.20964121,2.5426087 7.30645281,2.22724638 L7.30645281,0.579710145 C7.30645281,0.258550725 7.56616295,0 7.88616295,0 L12.2722499,0 C12.5922499,0 12.8519601,0.258550725 12.8519601,0.579710145 L12.8519601,2.30492754 C13.7365977,2.71768116 14.4392064,3.1315942 14.9829745,3.55942029 L16.7371774,2.50550725 C16.8705108,2.42434783 17.0316702,2.40115942 17.1812354,2.44057971 C17.3308006,2.48 17.4594963,2.5773913 17.5383369,2.71188406 L19.7308006,6.51014493 C19.8073224,6.64347826 19.8281919,6.80115942 19.7887716,6.95072464 C19.7481919,7.09913043 19.6508006,7.22550725 19.5186267,7.30086957 L17.6832644,8.36057971 C17.8293514,9.22550725 17.8293514,10.0765217 17.6832644,10.9426087 L19.5186267,12.0023188 C19.6508006,12.0776812 19.7481919,12.2052174 19.7887716,12.3536232 C19.8281919,12.5031884 19.8073224,12.6597101 19.7308006,12.7942029 L17.5383369,16.5913043 C17.4594963,16.7257971 17.3308006,16.8231884 17.1812354,16.8626087 C17.0316702,16.9031884 16.8705108,16.8776812 16.7371774,16.7988406 L14.984134,15.7449275 C14.4426847,16.1715942 13.7377572,16.5855072 12.8519601,16.9994203 L12.8519601,19.1547826 C12.8519601,19.4747826 12.5922499,19.7344928 12.2722499,19.7344928 L12.2722499,19.7344928 Z" id="Fill-1485"></path>
                <path d="M9.90378614,7.30817391 C8.61103252,7.30817391 7.56059773,8.35976812 7.56059773,9.65252174 C7.56059773,10.9452754 8.61103252,11.9968696 9.90378614,11.9968696 C11.1965398,11.9968696 12.248134,10.9452754 12.248134,9.65252174 C12.248134,8.35976812 11.1965398,7.30817391 9.90378614,7.30817391 M9.90378614,13.1562899 C7.97219194,13.1562899 6.40117744,11.5841159 6.40117744,9.65252174 C6.40117744,7.71976812 7.97219194,6.14875362 9.90378614,6.14875362 C11.8353803,6.14875362 13.4075543,7.71976812 13.4075543,9.65252174 C13.4075543,11.5841159 11.8353803,13.1562899 9.90378614,13.1562899" id="Fill-1486"></path>
            </g>
        </g>
    </g>
</svg>