<?xml version="1.0" encoding="UTF-8" standalone="no"?>
<svg width="22px" height="20px" viewBox="0 0 22 20" version="1.1" xmlns="http://www.w3.org/2000/svg" xmlns:xlink="http://www.w3.org/1999/xlink">
    <!-- Generator: Sketch 39.1 (31720) - http://www.bohemiancoding.com/sketch -->
    <title>Fill 1809 + Fill 1810 + Fill 1811</title>
    <desc>Created with Sketch.</desc>
    <defs></defs>
    <g id="Style-Guide" stroke="none" stroke-width="1" fill="none" fill-rule="evenodd">
        <g id="Icons" transform="translate(-72.000000, -122.000000)" stroke="#BDBFC1" stroke-width="0.5" fill="#BDBFC1">
            <g id="Fill-1809-+-Fill-1810-+-Fill-1811" transform="translate(73.000000, 123.000000)">
                <path d="M11,18.668 L0.333333333,18.668 C0.149333333,18.668 0,18.5186667 0,18.3346667 L0,0.334666667 C0,0.150666667 0.149333333,0.00133333333 0.333333333,0.00133333333 L11,0.00133333333 C11.184,0.00133333333 11.3333333,0.150666667 11.3333333,0.334666667 L11.3333333,4.03 C11.3333333,4.214 11.184,4.36333333 11,4.36333333 C10.816,4.36333333 10.6666667,4.214 10.6666667,4.03 L10.6666667,0.668 L0.666666667,0.668 L0.666666667,18.0013333 L10.6666667,18.0013333 L10.6666667,14.9573333 C10.6666667,14.7726667 10.816,14.624 11,14.624 C11.184,14.624 11.3333333,14.7726667 11.3333333,14.9573333 L11.3333333,18.3346667 C11.3333333,18.5186667 11.184,18.668 11,18.668" id="Fill-1809"></path>
                <path d="M19.6666667,10.0013333 L4.536,10.0013333 C4.352,10.0013333 4.20266667,9.852 4.20266667,9.668 C4.20266667,9.484 4.352,9.33466667 4.536,9.33466667 L19.6666667,9.33466667 C19.8506667,9.33466667 20,9.484 20,9.668 C20,9.852 19.8506667,10.0013333 19.6666667,10.0013333" id="Fill-1810"></path>
                <path d="M15.6666667,14.3346667 C15.5853333,14.3346667 15.5046667,14.3053333 15.4406667,14.246 C15.3053333,14.1213333 15.2966667,13.9106667 15.422,13.7753333 L19.2046667,9.67733333 L15.4306667,5.904 C15.3006667,5.77333333 15.3006667,5.56266667 15.4306667,5.432 C15.5613333,5.302 15.772,5.302 15.9026667,5.432 L19.9026667,9.432 C20.0293333,9.55866667 20.0326667,9.76266667 19.9113333,9.894 L15.9113333,14.2273333 C15.846,14.2986667 15.7566667,14.3346667 15.6666667,14.3346667" id="Fill-1811"></path>
            </g>
        </g>
    </g>
</svg>