<?xml version="1.0" encoding="UTF-8" standalone="no"?>
<svg width="30px" height="30px" viewBox="0 0 30 30" version="1.1" xmlns="http://www.w3.org/2000/svg" xmlns:xlink="http://www.w3.org/1999/xlink">
    <!-- Generator: Sketch 39.1 (31720) - http://www.bohemiancoding.com/sketch -->
    <title>Fill 1299 + Fill 1300</title>
    <desc>Created with Sketch.</desc>
    <defs></defs>
    <g id="Style-Guide" stroke="none" stroke-width="1" fill="none" fill-rule="evenodd">
        <g id="Icons" transform="translate(-203.000000, -115.000000)" fill="#231F1F">
            <g id="Fill-1299-+-Fill-1300" transform="translate(203.000000, 115.000000)">
                <path d="M11,23.002 L19,23.002 L19,9.502 C19,9.226 19.224,9.002 19.5,9.002 L22.636,9.002 L15,1.216 L7.364,9.002 L10.5,9.002 C10.776,9.002 11,9.226 11,9.502 L11,23.002 Z M19.5,24.002 L10.5,24.002 C10.224,24.002 10,23.778 10,23.502 L10,10.002 L6.174,10.002 C5.973,10.002 5.791,9.881 5.713,9.695 C5.635,9.51 5.676,9.296 5.817,9.152 L14.643,0.152 C14.831,-0.041 15.169,-0.041 15.357,0.152 L24.183,9.152 C24.324,9.296 24.365,9.51 24.287,9.695 C24.209,9.881 24.027,10.002 23.826,10.002 L20,10.002 L20,23.502 C20,23.778 19.776,24.002 19.5,24.002 L19.5,24.002 Z" id="Fill-1299"></path>
                <path d="M29.5,30.002 L0.5,30.002 C0.224,30.002 0,29.778 0,29.502 L0,23.002 C0,22.726 0.224,22.502 0.5,22.502 C0.776,22.502 1,22.726 1,23.002 L1,29.002 L29,29.002 L29,23.002 C29,22.726 29.224,22.502 29.5,22.502 C29.776,22.502 30,22.726 30,23.002 L30,29.502 C30,29.778 29.776,30.002 29.5,30.002" id="Fill-1300"></path>
            </g>
        </g>
    </g>
</svg>