<?xml version="1.0" encoding="UTF-8" standalone="no"?>
<svg width="16px" height="16px" viewBox="0 0 16 16" version="1.1" xmlns="http://www.w3.org/2000/svg" xmlns:xlink="http://www.w3.org/1999/xlink">
    <!-- Generator: Sketch 39.1 (31720) - http://www.bohemiancoding.com/sketch -->
    <title>Fill 1921 + Fill 1922</title>
    <desc>Created with Sketch.</desc>
    <defs></defs>
    <g id="Designs-r2" stroke="none" stroke-width="1" fill="none" fill-rule="evenodd">
        <g id="Account:-Logged-In:-notifications" transform="translate(-766.000000, -79.000000)" fill="#62676C">
            <g id="Fill-1921-+-Fill-1922" transform="translate(766.000000, 79.000000)">
                <path d="M0.266666667,16.0010667 C0.1984,16.0010667 0.130133333,15.9749333 0.0778666667,15.9232 C-0.0261333333,15.8186667 -0.0261333333,15.6501333 0.0778666667,15.5456 L15.5445333,0.0789333333 C15.6490667,-0.0250666667 15.8176,-0.0250666667 15.9221333,0.0789333333 C16.0261333,0.183466667 16.0261333,0.352 15.9221333,0.456533333 L0.455466667,15.9232 C0.4032,15.9749333 0.334933333,16.0010667 0.266666667,16.0010667" id="Fill-1921"></path>
                <path d="M15.7333333,16.0010667 C15.6650667,16.0010667 15.5968,15.9749333 15.5445333,15.9232 L0.0778666667,0.456533333 C-0.0261333333,0.352 -0.0261333333,0.183466667 0.0778666667,0.0789333333 C0.1824,-0.0250666667 0.350933333,-0.0250666667 0.455466667,0.0789333333 L15.9221333,15.5456 C16.0261333,15.6501333 16.0261333,15.8186667 15.9221333,15.9232 C15.8698667,15.9749333 15.8016,16.0010667 15.7333333,16.0010667" id="Fill-1922"></path>
            </g>
        </g>
    </g>
</svg>